<?xml version="1.0" encoding="UTF-8" standalone="no"?>
<!DOCTYPE svg PUBLIC "-//W3C//DTD SVG 1.1//EN"
 "http://www.w3.org/Graphics/SVG/1.1/DTD/svg11.dtd">
<!-- Generated by graphviz version 2.47.0 (20210316.0004)
 -->
<!-- Title: dependencies Pages: 1 -->
<svg width="1263pt" height="306pt"
 viewBox="0.00 0.00 1263.00 306.00" xmlns="http://www.w3.org/2000/svg" xmlns:xlink="http://www.w3.org/1999/xlink">
<g id="graph0" class="graph" transform="scale(1 1) rotate(0) translate(4 302)">
<title>dependencies</title>
<polygon fill="white" stroke="transparent" points="-4,4 -4,-302 1259,-302 1259,4 -4,4"/>
<text text-anchor="start" x="606.51" y="-42.4" font-family="Times-12" font-weight="bold" font-size="14.00">Legend</text>
<polygon fill="#ffffb3" stroke="transparent" points="393.5,-10 393.5,-30 413.5,-30 413.5,-10 393.5,-10"/>
<text text-anchor="start" x="417.13" y="-15.4" font-family="Times-12" font-size="14.00"> &#160;Declarations</text>
<polygon fill="#8dd3c7" stroke="transparent" points="506.5,-10 506.5,-30 526.5,-30 526.5,-10 506.5,-10"/>
<text text-anchor="start" x="530.23" y="-15.4" font-family="Times-12" font-size="14.00"> &#160;Module</text>
<polygon fill="#80b1d3" stroke="transparent" points="592.5,-10 592.5,-30 612.5,-30 612.5,-10 592.5,-10"/>
<text text-anchor="start" x="616.28" y="-15.4" font-family="Times-12" font-size="14.00"> &#160;Bootstrap</text>
<polygon fill="#fdb462" stroke="transparent" points="689.5,-10 689.5,-30 709.5,-30 709.5,-10 689.5,-10"/>
<text text-anchor="start" x="713.17" y="-15.4" font-family="Times-12" font-size="14.00"> &#160;Providers</text>
<polygon fill="#fb8072" stroke="transparent" points="785.5,-10 785.5,-30 805.5,-30 805.5,-10 785.5,-10"/>
<text text-anchor="start" x="809.23" y="-15.4" font-family="Times-12" font-size="14.00"> &#160;Exports</text>
<g id="clust1" class="cluster">
<title>cluster_AppModule</title>
<polygon fill="none" stroke="black" stroke-dasharray="1,5" points="368,-146 368,-282 827,-282 827,-146 368,-146"/>
</g>
<g id="clust3" class="cluster">
<title>cluster_AppModule_imports</title>
<polygon fill="none" stroke="black" points="376,-154 376,-206 819,-206 819,-154 376,-154"/>
</g>
<g id="clust7" class="cluster">
<title>cluster_AuthModule</title>
<polygon fill="none" stroke="black" stroke-dasharray="1,5" points="258,-70 258,-138 1132,-138 1132,-70 258,-70"/>
</g>
<g id="clust9" class="cluster">
<title>cluster_AuthModule_imports</title>
<polygon fill="none" stroke="black" points="996,-78 996,-130 1124,-130 1124,-78 996,-78"/>
</g>
<g id="clust12" class="cluster">
<title>cluster_AuthModule_providers</title>
<polygon fill="none" stroke="black" points="266,-78 266,-130 988,-130 988,-78 266,-78"/>
</g>
<g id="clust13" class="cluster">
<title>cluster_CommonModule</title>
<polygon fill="none" stroke="black" stroke-dasharray="1,5" points="907,-146 907,-214 1191,-214 1191,-146 907,-146"/>
</g>
<g id="clust15" class="cluster">
<title>cluster_CommonModule_imports</title>
<polygon fill="none" stroke="black" points="1047,-154 1047,-206 1183,-206 1183,-154 1047,-154"/>
</g>
<g id="clust16" class="cluster">
<title>cluster_CommonModule_exports</title>
<polygon fill="none" stroke="black" points="915,-154 915,-206 1039,-206 1039,-154 915,-154"/>
</g>
<g id="clust19" class="cluster">
<title>cluster_CoreModule</title>
<polygon fill="none" stroke="black" stroke-dasharray="1,5" points="8,-70 8,-138 250,-138 250,-70 8,-70"/>
</g>
<g id="clust21" class="cluster">
<title>cluster_CoreModule_imports</title>
<polygon fill="none" stroke="black" points="16,-78 16,-130 242,-130 242,-78 16,-78"/>
</g>
<g id="clust37" class="cluster">
<title>cluster_PaginationModule</title>
<polygon fill="none" stroke="black" stroke-dasharray="1,5" points="907,-222 907,-290 1247,-290 1247,-222 907,-222"/>
</g>
<g id="clust40" class="cluster">
<title>cluster_PaginationModule_exports</title>
<polygon fill="none" stroke="black" points="1101,-230 1101,-282 1239,-282 1239,-230 1101,-230"/>
</g>
<g id="clust42" class="cluster">
<title>cluster_PaginationModule_providers</title>
<polygon fill="none" stroke="black" points="915,-230 915,-282 1093,-282 1093,-230 915,-230"/>
</g>
<!-- AuthModule -->
<g id="node1" class="node">
<title>AuthModule</title>
<polygon fill="#8dd3c7" stroke="black" points="701.55,-198 698.55,-202 677.55,-202 674.55,-198 614.45,-198 614.45,-162 701.55,-162 701.55,-198"/>
<text text-anchor="middle" x="658" y="-175.8" font-family="Times,serif" font-size="14.00">AuthModule</text>
</g>
<!-- AppModule -->
<g id="node5" class="node">
<title>AppModule</title>
<polygon fill="#8dd3c7" stroke="black" points="641.66,-274 638.66,-278 617.66,-278 614.66,-274 558.34,-274 558.34,-238 641.66,-238 641.66,-274"/>
<text text-anchor="middle" x="600" y="-251.8" font-family="Times,serif" font-size="14.00">AppModule</text>
</g>
<!-- AuthModule&#45;&gt;AppModule -->
<g id="edge1" class="edge">
<title>AuthModule&#45;&gt;AppModule</title>
<path fill="none" stroke="black" d="M628.03,-198.01C628.03,-198.01 628.03,-227.85 628.03,-227.85"/>
<polygon fill="black" stroke="black" points="624.53,-227.85 628.03,-237.85 631.53,-227.85 624.53,-227.85"/>
</g>
<!-- CoreModule -->
<g id="node2" class="node">
<title>CoreModule</title>
<polygon fill="#8dd3c7" stroke="black" points="470.26,-198 467.26,-202 446.26,-202 443.26,-198 383.74,-198 383.74,-162 470.26,-162 470.26,-198"/>
<text text-anchor="middle" x="427" y="-175.8" font-family="Times,serif" font-size="14.00">CoreModule</text>
</g>
<!-- CoreModule&#45;&gt;AppModule -->
<g id="edge2" class="edge">
<title>CoreModule&#45;&gt;AppModule</title>
<path fill="none" stroke="black" d="M427,-198.01C427,-220.49 427,-256 427,-256 427,-256 548.12,-256 548.12,-256"/>
<polygon fill="black" stroke="black" points="548.12,-259.5 558.12,-256 548.12,-252.5 548.12,-259.5"/>
</g>
<!-- SessionsModule -->
<g id="node3" class="node">
<title>SessionsModule</title>
<polygon fill="#8dd3c7" stroke="black" points="595.77,-198 592.77,-202 571.77,-202 568.77,-198 488.23,-198 488.23,-162 595.77,-162 595.77,-198"/>
<text text-anchor="middle" x="542" y="-175.8" font-family="Times,serif" font-size="14.00">SessionsModule</text>
</g>
<!-- SessionsModule&#45;&gt;AppModule -->
<g id="edge3" class="edge">
<title>SessionsModule&#45;&gt;AppModule</title>
<path fill="none" stroke="black" d="M577.03,-198.01C577.03,-198.01 577.03,-227.85 577.03,-227.85"/>
<polygon fill="black" stroke="black" points="573.53,-227.85 577.03,-237.85 580.53,-227.85 573.53,-227.85"/>
</g>
<!-- UsersModule -->
<g id="node4" class="node">
<title>UsersModule</title>
<polygon fill="#8dd3c7" stroke="black" points="810.92,-198 807.92,-202 786.92,-202 783.92,-198 719.08,-198 719.08,-162 810.92,-162 810.92,-198"/>
<text text-anchor="middle" x="765" y="-175.8" font-family="Times,serif" font-size="14.00">UsersModule</text>
</g>
<!-- UsersModule&#45;&gt;AppModule -->
<g id="edge4" class="edge">
<title>UsersModule&#45;&gt;AppModule</title>
<path fill="none" stroke="black" d="M765,-198.01C765,-220.49 765,-256 765,-256 765,-256 652.06,-256 652.06,-256"/>
<polygon fill="black" stroke="black" points="652.06,-252.5 642.06,-256 652.06,-259.5 652.06,-252.5"/>
</g>
<!-- CommonModule -->
<g id="node6" class="node">
<title>CommonModule</title>
<polygon fill="#8dd3c7" stroke="black" points="1115.67,-122 1112.67,-126 1091.67,-126 1088.67,-122 1004.33,-122 1004.33,-86 1115.67,-86 1115.67,-122"/>
<text text-anchor="middle" x="1060" y="-99.8" font-family="Times,serif" font-size="14.00">CommonModule</text>
</g>
<!-- CommonModule&#45;&gt;AuthModule -->
<g id="edge5" class="edge">
<title>CommonModule&#45;&gt;AuthModule</title>
<path fill="none" stroke="black" d="M1014.93,-122.04C1014.93,-129.75 1014.93,-137 1014.93,-137 1014.93,-137 687.18,-137 687.18,-137 687.18,-137 687.18,-151.51 687.18,-151.51"/>
<polygon fill="black" stroke="black" points="683.68,-151.51 687.18,-161.51 690.68,-151.51 683.68,-151.51"/>
</g>
<!-- CommonModule&#45;&gt;CoreModule -->
<g id="edge13" class="edge">
<title>CommonModule&#45;&gt;CoreModule</title>
<path fill="none" stroke="black" d="M1009.55,-122.12C1009.55,-124.97 1009.55,-127 1009.55,-127 1009.55,-127 454.54,-127 454.54,-127 454.54,-127 454.54,-151.76 454.54,-151.76"/>
<polygon fill="black" stroke="black" points="451.04,-151.76 454.54,-161.76 458.04,-151.76 451.04,-151.76"/>
</g>
<!-- CommonModule&#45;&gt;UsersModule -->
<g id="edge19" class="edge">
<title>CommonModule&#45;&gt;UsersModule</title>
<path fill="none" stroke="black" d="M1020.31,-122.11C1020.31,-131.9 1020.31,-142 1020.31,-142 1020.31,-142 767.54,-142 767.54,-142 767.54,-142 767.54,-151.89 767.54,-151.89"/>
<polygon fill="black" stroke="black" points="764.04,-151.89 767.54,-161.89 771.04,-151.89 764.04,-151.89"/>
</g>
<!-- HashingService  -->
<g id="node13" class="node">
<title>HashingService </title>
<polygon fill="#fb8072" stroke="black" points="1031.13,-198 922.87,-198 922.87,-162 1031.13,-162 1031.13,-198"/>
<text text-anchor="middle" x="977" y="-175.8" font-family="Times,serif" font-size="14.00">HashingService </text>
</g>
<!-- CommonModule&#45;&gt;HashingService  -->
<g id="edge12" class="edge">
<title>CommonModule&#45;&gt;HashingService </title>
<path fill="none" stroke="black" stroke-dasharray="5,2" d="M1025.69,-122.01C1025.69,-122.01 1025.69,-151.85 1025.69,-151.85"/>
<polygon fill="black" stroke="black" points="1022.19,-151.85 1025.69,-161.85 1029.19,-151.85 1022.19,-151.85"/>
</g>
<!-- AuthService -->
<g id="node7" class="node">
<title>AuthService</title>
<ellipse fill="#fdb462" stroke="black" cx="498" cy="-104" rx="59.11" ry="18"/>
<text text-anchor="middle" x="498" y="-99.8" font-family="Times,serif" font-size="14.00">AuthService</text>
</g>
<!-- AuthService&#45;&gt;AuthModule -->
<g id="edge6" class="edge">
<title>AuthService&#45;&gt;AuthModule</title>
<path fill="none" stroke="black" d="M534.24,-118.56C534.24,-131.03 534.24,-147 534.24,-147 534.24,-147 643.41,-147 643.41,-147 643.41,-147 643.41,-151.96 643.41,-151.96"/>
<polygon fill="black" stroke="black" points="639.91,-151.96 643.41,-161.96 646.91,-151.96 639.91,-151.96"/>
</g>
<!-- JwtStrategy -->
<g id="node8" class="node">
<title>JwtStrategy</title>
<ellipse fill="#fdb462" stroke="black" cx="781" cy="-104" rx="56.76" ry="18"/>
<text text-anchor="middle" x="781" y="-99.8" font-family="Times,serif" font-size="14.00">JwtStrategy</text>
</g>
<!-- JwtStrategy&#45;&gt;AuthModule -->
<g id="edge7" class="edge">
<title>JwtStrategy&#45;&gt;AuthModule</title>
<path fill="none" stroke="black" d="M724.32,-104C717.42,-104 712.75,-104 712.75,-104 712.75,-104 712.75,-180 712.75,-180 712.75,-180 711.64,-180 711.64,-180"/>
<polygon fill="black" stroke="black" points="711.67,-176.5 701.67,-180 711.67,-183.5 711.67,-176.5"/>
</g>
<!-- LocalStrategy -->
<g id="node9" class="node">
<title>LocalStrategy</title>
<ellipse fill="#fdb462" stroke="black" cx="641" cy="-104" rx="65.41" ry="18"/>
<text text-anchor="middle" x="641" y="-99.8" font-family="Times,serif" font-size="14.00">LocalStrategy</text>
</g>
<!-- LocalStrategy&#45;&gt;AuthModule -->
<g id="edge8" class="edge">
<title>LocalStrategy&#45;&gt;AuthModule</title>
<path fill="none" stroke="black" d="M658,-121.63C658,-121.63 658,-151.94 658,-151.94"/>
<polygon fill="black" stroke="black" points="654.5,-151.94 658,-161.94 661.5,-151.94 654.5,-151.94"/>
</g>
<!-- SessionsService -->
<g id="node10" class="node">
<title>SessionsService</title>
<ellipse fill="#fdb462" stroke="black" cx="347" cy="-104" rx="73.01" ry="18"/>
<text text-anchor="middle" x="347" y="-99.8" font-family="Times,serif" font-size="14.00">SessionsService</text>
</g>
<!-- SessionsService&#45;&gt;AuthModule -->
<g id="edge9" class="edge">
<title>SessionsService&#45;&gt;AuthModule</title>
<path fill="none" stroke="black" d="M408.04,-114.18C408.04,-128.27 408.04,-152 408.04,-152 408.04,-152 628.82,-152 628.82,-152 628.82,-152 628.82,-152.98 628.82,-152.98"/>
<polygon fill="black" stroke="black" points="625.32,-151.79 628.82,-161.79 632.32,-151.79 625.32,-151.79"/>
</g>
<!-- SessionsService&#45;&gt;SessionsModule -->
<g id="edge18" class="edge">
<title>SessionsService&#45;&gt;SessionsModule</title>
<path fill="none" stroke="black" d="M395.83,-117.65C395.83,-133.35 395.83,-157 395.83,-157 395.83,-157 511.18,-157 511.18,-157 511.18,-157 511.18,-157.49 511.18,-157.49"/>
<polygon fill="black" stroke="black" points="507.68,-151.88 511.18,-161.88 514.68,-151.88 507.68,-151.88"/>
</g>
<!-- UsersService -->
<g id="node11" class="node">
<title>UsersService</title>
<ellipse fill="#fdb462" stroke="black" cx="918" cy="-104" rx="61.95" ry="18"/>
<text text-anchor="middle" x="918" y="-99.8" font-family="Times,serif" font-size="14.00">UsersService</text>
</g>
<!-- UsersService&#45;&gt;AuthModule -->
<g id="edge10" class="edge">
<title>UsersService&#45;&gt;AuthModule</title>
<path fill="none" stroke="black" d="M878.25,-118C878.25,-125 878.25,-132 878.25,-132 878.25,-132 672.59,-132 672.59,-132 672.59,-132 672.59,-151.85 672.59,-151.85"/>
<polygon fill="black" stroke="black" points="669.09,-151.85 672.59,-161.85 676.09,-151.85 669.09,-151.85"/>
</g>
<!-- UsersService&#45;&gt;UsersModule -->
<g id="edge20" class="edge">
<title>UsersService&#45;&gt;UsersModule</title>
<path fill="none" stroke="black" d="M900.48,-121.63C900.48,-144.08 900.48,-180 900.48,-180 900.48,-180 820.87,-180 820.87,-180"/>
<polygon fill="black" stroke="black" points="820.87,-176.5 810.87,-180 820.87,-183.5 820.87,-176.5"/>
</g>
<!-- PaginationModule -->
<g id="node12" class="node">
<title>PaginationModule</title>
<polygon fill="#8dd3c7" stroke="black" points="1174.93,-198 1171.93,-202 1150.93,-202 1147.93,-198 1055.07,-198 1055.07,-162 1174.93,-162 1174.93,-198"/>
<text text-anchor="middle" x="1115" y="-175.8" font-family="Times,serif" font-size="14.00">PaginationModule</text>
</g>
<!-- PaginationModule&#45;&gt;CommonModule -->
<g id="edge11" class="edge">
<title>PaginationModule&#45;&gt;CommonModule</title>
<path fill="none" stroke="black" d="M1085.56,-161.99C1085.56,-161.99 1085.56,-132.15 1085.56,-132.15"/>
<polygon fill="black" stroke="black" points="1089.06,-132.15 1085.56,-122.15 1082.06,-132.15 1089.06,-132.15"/>
</g>
<!-- PaginationService  -->
<g id="node16" class="node">
<title>PaginationService </title>
<polygon fill="#fb8072" stroke="black" points="1230.86,-274 1109.14,-274 1109.14,-238 1230.86,-238 1230.86,-274"/>
<text text-anchor="middle" x="1170" y="-251.8" font-family="Times,serif" font-size="14.00">PaginationService </text>
</g>
<!-- PaginationModule&#45;&gt;PaginationService  -->
<g id="edge16" class="edge">
<title>PaginationModule&#45;&gt;PaginationService </title>
<path fill="none" stroke="black" stroke-dasharray="5,2" d="M1142.02,-198.01C1142.02,-198.01 1142.02,-227.85 1142.02,-227.85"/>
<polygon fill="black" stroke="black" points="1138.52,-227.85 1142.02,-237.85 1145.52,-227.85 1138.52,-227.85"/>
</g>
<!-- DatabaseModule -->
<g id="node14" class="node">
<title>DatabaseModule</title>
<polygon fill="#8dd3c7" stroke="black" points="234.35,-122 231.35,-126 210.35,-126 207.35,-122 123.65,-122 123.65,-86 234.35,-86 234.35,-122"/>
<text text-anchor="middle" x="179" y="-99.8" font-family="Times,serif" font-size="14.00">DatabaseModule</text>
</g>
<!-- DatabaseModule&#45;&gt;CoreModule -->
<g id="edge14" class="edge">
<title>DatabaseModule&#45;&gt;CoreModule</title>
<path fill="none" stroke="black" d="M179,-122.03C179,-142.77 179,-174 179,-174 179,-174 373.52,-174 373.52,-174"/>
<polygon fill="black" stroke="black" points="373.52,-177.5 383.52,-174 373.52,-170.5 373.52,-177.5"/>
</g>
<!-- EnvModule -->
<g id="node15" class="node">
<title>EnvModule</title>
<polygon fill="#8dd3c7" stroke="black" points="106.1,-122 103.1,-126 82.1,-126 79.1,-122 23.9,-122 23.9,-86 106.1,-86 106.1,-122"/>
<text text-anchor="middle" x="65" y="-99.8" font-family="Times,serif" font-size="14.00">EnvModule</text>
</g>
<!-- EnvModule&#45;&gt;CoreModule -->
<g id="edge15" class="edge">
<title>EnvModule&#45;&gt;CoreModule</title>
<path fill="none" stroke="black" d="M65,-122.2C65,-146.36 65,-186 65,-186 65,-186 373.69,-186 373.69,-186"/>
<polygon fill="black" stroke="black" points="373.69,-189.5 383.69,-186 373.69,-182.5 373.69,-189.5"/>
</g>
<!-- PaginationService -->
<g id="node17" class="node">
<title>PaginationService</title>
<ellipse fill="#fdb462" stroke="black" cx="1004" cy="-256" rx="81.1" ry="18"/>
<text text-anchor="middle" x="1004" y="-251.8" font-family="Times,serif" font-size="14.00">PaginationService</text>
</g>
<!-- PaginationService&#45;&gt;PaginationModule -->
<g id="edge17" class="edge">
<title>PaginationService&#45;&gt;PaginationModule</title>
<path fill="none" stroke="black" d="M1070.29,-245.43C1070.29,-245.43 1070.29,-208.07 1070.29,-208.07"/>
<polygon fill="black" stroke="black" points="1073.79,-208.07 1070.29,-198.07 1066.79,-208.07 1073.79,-208.07"/>
</g>
</g>
</svg>
