<?xml version="1.0" encoding="UTF-8" standalone="no"?>
<!DOCTYPE svg PUBLIC "-//W3C//DTD SVG 1.1//EN"
 "http://www.w3.org/Graphics/SVG/1.1/DTD/svg11.dtd">
<!-- Generated by graphviz version 2.47.0 (20210316.0004)
 -->
<!-- Title: dependencies Pages: 1 -->
<svg width="1139pt" height="287pt"
 viewBox="0.00 0.00 1139.00 287.00" xmlns="http://www.w3.org/2000/svg" xmlns:xlink="http://www.w3.org/1999/xlink">
<g id="graph0" class="graph" transform="scale(1 1) rotate(0) translate(4 283)">
<title>dependencies</title>
<polygon fill="white" stroke="transparent" points="-4,4 -4,-283 1135,-283 1135,4 -4,4"/>
<text text-anchor="start" x="544.51" y="-42.4" font-family="Times-12" font-weight="bold" font-size="14.00">Legend</text>
<polygon fill="#ffffb3" stroke="transparent" points="331.5,-10 331.5,-30 351.5,-30 351.5,-10 331.5,-10"/>
<text text-anchor="start" x="355.13" y="-15.4" font-family="Times-12" font-size="14.00"> &#160;Declarations</text>
<polygon fill="#8dd3c7" stroke="transparent" points="444.5,-10 444.5,-30 464.5,-30 464.5,-10 444.5,-10"/>
<text text-anchor="start" x="468.23" y="-15.4" font-family="Times-12" font-size="14.00"> &#160;Module</text>
<polygon fill="#80b1d3" stroke="transparent" points="530.5,-10 530.5,-30 550.5,-30 550.5,-10 530.5,-10"/>
<text text-anchor="start" x="554.28" y="-15.4" font-family="Times-12" font-size="14.00"> &#160;Bootstrap</text>
<polygon fill="#fdb462" stroke="transparent" points="627.5,-10 627.5,-30 647.5,-30 647.5,-10 627.5,-10"/>
<text text-anchor="start" x="651.17" y="-15.4" font-family="Times-12" font-size="14.00"> &#160;Providers</text>
<polygon fill="#fb8072" stroke="transparent" points="723.5,-10 723.5,-30 743.5,-30 743.5,-10 723.5,-10"/>
<text text-anchor="start" x="747.23" y="-15.4" font-family="Times-12" font-size="14.00"> &#160;Exports</text>
<g id="clust1" class="cluster">
<title>cluster_AppModule</title>
<polygon fill="none" stroke="black" stroke-dasharray="1,5" points="418,-146 418,-271 872,-271 872,-146 418,-146"/>
</g>
<g id="clust3" class="cluster">
<title>cluster_AppModule_imports</title>
<polygon fill="none" stroke="black" points="426,-154 426,-206 864,-206 864,-154 426,-154"/>
</g>
<g id="clust7" class="cluster">
<title>cluster_AuthModule</title>
<polygon fill="none" stroke="black" stroke-dasharray="1,5" points="258,-70 258,-138 1123,-138 1123,-70 258,-70"/>
</g>
<g id="clust9" class="cluster">
<title>cluster_AuthModule_imports</title>
<polygon fill="none" stroke="black" points="987,-78 987,-130 1115,-130 1115,-78 987,-78"/>
</g>
<g id="clust12" class="cluster">
<title>cluster_AuthModule_providers</title>
<polygon fill="none" stroke="black" points="266,-78 266,-130 979,-130 979,-78 266,-78"/>
</g>
<g id="clust13" class="cluster">
<title>cluster_CommonModule</title>
<polygon fill="none" stroke="black" stroke-dasharray="1,5" points="981,-146 981,-214 1121,-214 1121,-146 981,-146"/>
</g>
<g id="clust16" class="cluster">
<title>cluster_CommonModule_exports</title>
<polygon fill="none" stroke="black" points="989,-154 989,-206 1113,-206 1113,-154 989,-154"/>
</g>
<g id="clust19" class="cluster">
<title>cluster_CoreModule</title>
<polygon fill="none" stroke="black" stroke-dasharray="1,5" points="8,-70 8,-138 250,-138 250,-70 8,-70"/>
</g>
<g id="clust21" class="cluster">
<title>cluster_CoreModule_imports</title>
<polygon fill="none" stroke="black" points="16,-78 16,-130 242,-130 242,-78 16,-78"/>
</g>
<!-- AuthModule -->
<g id="node1" class="node">
<title>AuthModule</title>
<polygon fill="#8dd3c7" stroke="black" points="746.55,-198 743.55,-202 722.55,-202 719.55,-198 659.45,-198 659.45,-162 746.55,-162 746.55,-198"/>
<text text-anchor="middle" x="703" y="-175.8" font-family="Times,serif" font-size="14.00">AuthModule</text>
</g>
<!-- AppModule -->
<g id="node5" class="node">
<title>AppModule</title>
<polygon fill="#8dd3c7" stroke="black" points="687.66,-263 684.66,-267 663.66,-267 660.66,-263 604.34,-263 604.34,-227 687.66,-227 687.66,-263"/>
<text text-anchor="middle" x="646" y="-240.8" font-family="Times,serif" font-size="14.00">AppModule</text>
</g>
<!-- AuthModule&#45;&gt;AppModule -->
<g id="edge1" class="edge">
<title>AuthModule&#45;&gt;AppModule</title>
<path fill="none" stroke="black" d="M673.53,-198.11C673.53,-198.11 673.53,-216.99 673.53,-216.99"/>
<polygon fill="black" stroke="black" points="670.03,-216.99 673.53,-226.99 677.03,-216.99 670.03,-216.99"/>
</g>
<!-- CoreModule -->
<g id="node2" class="node">
<title>CoreModule</title>
<polygon fill="#8dd3c7" stroke="black" points="520.26,-198 517.26,-202 496.26,-202 493.26,-198 433.74,-198 433.74,-162 520.26,-162 520.26,-198"/>
<text text-anchor="middle" x="477" y="-175.8" font-family="Times,serif" font-size="14.00">CoreModule</text>
</g>
<!-- CoreModule&#45;&gt;AppModule -->
<g id="edge2" class="edge">
<title>CoreModule&#45;&gt;AppModule</title>
<path fill="none" stroke="black" d="M477,-198.11C477,-217.34 477,-245 477,-245 477,-245 594.22,-245 594.22,-245"/>
<polygon fill="black" stroke="black" points="594.22,-248.5 604.22,-245 594.22,-241.5 594.22,-248.5"/>
</g>
<!-- SessionModule -->
<g id="node3" class="node">
<title>SessionModule</title>
<polygon fill="#8dd3c7" stroke="black" points="641.33,-198 638.33,-202 617.33,-202 614.33,-198 538.67,-198 538.67,-162 641.33,-162 641.33,-198"/>
<text text-anchor="middle" x="590" y="-175.8" font-family="Times,serif" font-size="14.00">SessionModule</text>
</g>
<!-- SessionModule&#45;&gt;AppModule -->
<g id="edge3" class="edge">
<title>SessionModule&#45;&gt;AppModule</title>
<path fill="none" stroke="black" d="M622.67,-198.11C622.67,-198.11 622.67,-216.99 622.67,-216.99"/>
<polygon fill="black" stroke="black" points="619.17,-216.99 622.67,-226.99 626.17,-216.99 619.17,-216.99"/>
</g>
<!-- UsersModule -->
<g id="node4" class="node">
<title>UsersModule</title>
<polygon fill="#8dd3c7" stroke="black" points="855.92,-198 852.92,-202 831.92,-202 828.92,-198 764.08,-198 764.08,-162 855.92,-162 855.92,-198"/>
<text text-anchor="middle" x="810" y="-175.8" font-family="Times,serif" font-size="14.00">UsersModule</text>
</g>
<!-- UsersModule&#45;&gt;AppModule -->
<g id="edge4" class="edge">
<title>UsersModule&#45;&gt;AppModule</title>
<path fill="none" stroke="black" d="M810,-198.11C810,-217.34 810,-245 810,-245 810,-245 697.81,-245 697.81,-245"/>
<polygon fill="black" stroke="black" points="697.81,-241.5 687.81,-245 697.81,-248.5 697.81,-241.5"/>
</g>
<!-- CommonModule -->
<g id="node6" class="node">
<title>CommonModule</title>
<polygon fill="#8dd3c7" stroke="black" points="1106.67,-122 1103.67,-126 1082.67,-126 1079.67,-122 995.33,-122 995.33,-86 1106.67,-86 1106.67,-122"/>
<text text-anchor="middle" x="1051" y="-99.8" font-family="Times,serif" font-size="14.00">CommonModule</text>
</g>
<!-- CommonModule&#45;&gt;AuthModule -->
<g id="edge5" class="edge">
<title>CommonModule&#45;&gt;AuthModule</title>
<path fill="none" stroke="black" d="M1051,-122.24C1051,-137.57 1051,-157 1051,-157 1051,-157 737.75,-157 737.75,-157 737.75,-157 737.75,-157.49 737.75,-157.49"/>
<polygon fill="black" stroke="black" points="734.25,-151.88 737.75,-161.88 741.25,-151.88 734.25,-151.88"/>
</g>
<!-- CommonModule&#45;&gt;CoreModule -->
<g id="edge12" class="edge">
<title>CommonModule&#45;&gt;CoreModule</title>
<path fill="none" stroke="black" d="M1023.97,-122.19C1023.97,-125.54 1023.97,-128 1023.97,-128 1023.97,-128 477,-128 477,-128 477,-128 477,-151.81 477,-151.81"/>
<polygon fill="black" stroke="black" points="473.5,-151.81 477,-161.81 480.5,-151.81 473.5,-151.81"/>
</g>
<!-- CommonModule&#45;&gt;UsersModule -->
<g id="edge16" class="edge">
<title>CommonModule&#45;&gt;UsersModule</title>
<path fill="none" stroke="black" d="M995.22,-104C988.01,-104 983.07,-104 983.07,-104 983.07,-104 983.07,-180 983.07,-180 983.07,-180 865.93,-180 865.93,-180"/>
<polygon fill="black" stroke="black" points="865.93,-176.5 855.93,-180 865.93,-183.5 865.93,-176.5"/>
</g>
<!-- HashingService  -->
<g id="node12" class="node">
<title>HashingService </title>
<polygon fill="#fb8072" stroke="black" points="1105.13,-198 996.87,-198 996.87,-162 1105.13,-162 1105.13,-198"/>
<text text-anchor="middle" x="1051" y="-175.8" font-family="Times,serif" font-size="14.00">HashingService </text>
</g>
<!-- CommonModule&#45;&gt;HashingService  -->
<g id="edge11" class="edge">
<title>CommonModule&#45;&gt;HashingService </title>
<path fill="none" stroke="black" stroke-dasharray="5,2" d="M1078.03,-122.01C1078.03,-122.01 1078.03,-151.85 1078.03,-151.85"/>
<polygon fill="black" stroke="black" points="1074.53,-151.85 1078.03,-161.85 1081.53,-151.85 1074.53,-151.85"/>
</g>
<!-- AuthService -->
<g id="node7" class="node">
<title>AuthService</title>
<ellipse fill="#fdb462" stroke="black" cx="770" cy="-104" rx="59.11" ry="18"/>
<text text-anchor="middle" x="770" y="-99.8" font-family="Times,serif" font-size="14.00">AuthService</text>
</g>
<!-- AuthService&#45;&gt;AuthModule -->
<g id="edge6" class="edge">
<title>AuthService&#45;&gt;AuthModule</title>
<path fill="none" stroke="black" d="M719.72,-113.63C719.72,-113.63 719.72,-151.75 719.72,-151.75"/>
<polygon fill="black" stroke="black" points="716.22,-151.75 719.72,-161.75 723.22,-151.75 716.22,-151.75"/>
</g>
<!-- JwtStrategy -->
<g id="node8" class="node">
<title>JwtStrategy</title>
<ellipse fill="#fdb462" stroke="black" cx="636" cy="-104" rx="56.76" ry="18"/>
<text text-anchor="middle" x="636" y="-99.8" font-family="Times,serif" font-size="14.00">JwtStrategy</text>
</g>
<!-- JwtStrategy&#45;&gt;AuthModule -->
<g id="edge7" class="edge">
<title>JwtStrategy&#45;&gt;AuthModule</title>
<path fill="none" stroke="black" d="M684.28,-113.63C684.28,-113.63 684.28,-151.75 684.28,-151.75"/>
<polygon fill="black" stroke="black" points="680.78,-151.75 684.28,-161.75 687.78,-151.75 680.78,-151.75"/>
</g>
<!-- LocalStrategy -->
<g id="node9" class="node">
<title>LocalStrategy</title>
<ellipse fill="#fdb462" stroke="black" cx="496" cy="-104" rx="65.41" ry="18"/>
<text text-anchor="middle" x="496" y="-99.8" font-family="Times,serif" font-size="14.00">LocalStrategy</text>
</g>
<!-- LocalStrategy&#45;&gt;AuthModule -->
<g id="edge8" class="edge">
<title>LocalStrategy&#45;&gt;AuthModule</title>
<path fill="none" stroke="black" d="M553.75,-112.52C553.75,-121.39 553.75,-134 553.75,-134 553.75,-134 675.93,-134 675.93,-134 675.93,-134 675.93,-151.82 675.93,-151.82"/>
<polygon fill="black" stroke="black" points="672.43,-151.82 675.93,-161.82 679.43,-151.82 672.43,-151.82"/>
</g>
<!-- SessionService -->
<g id="node10" class="node">
<title>SessionService</title>
<ellipse fill="#fdb462" stroke="black" cx="343" cy="-104" rx="69.5" ry="18"/>
<text text-anchor="middle" x="343" y="-99.8" font-family="Times,serif" font-size="14.00">SessionService</text>
</g>
<!-- SessionService&#45;&gt;AuthModule -->
<g id="edge9" class="edge">
<title>SessionService&#45;&gt;AuthModule</title>
<path fill="none" stroke="black" d="M366.17,-121.16C366.17,-130.43 366.17,-140 366.17,-140 366.17,-140 667.58,-140 667.58,-140 667.58,-140 667.58,-151.87 667.58,-151.87"/>
<polygon fill="black" stroke="black" points="664.08,-151.87 667.58,-161.87 671.08,-151.87 664.08,-151.87"/>
</g>
<!-- SessionService&#45;&gt;SessionModule -->
<g id="edge15" class="edge">
<title>SessionService&#45;&gt;SessionModule</title>
<path fill="none" stroke="black" d="M319.83,-121.15C319.83,-132.39 319.83,-145 319.83,-145 319.83,-145 546.29,-145 546.29,-145 546.29,-145 546.29,-151.68 546.29,-151.68"/>
<polygon fill="black" stroke="black" points="542.79,-151.68 546.29,-161.68 549.79,-151.68 542.79,-151.68"/>
</g>
<!-- UsersService -->
<g id="node11" class="node">
<title>UsersService</title>
<ellipse fill="#fdb462" stroke="black" cx="909" cy="-104" rx="61.95" ry="18"/>
<text text-anchor="middle" x="909" y="-99.8" font-family="Times,serif" font-size="14.00">UsersService</text>
</g>
<!-- UsersService&#45;&gt;AuthModule -->
<g id="edge10" class="edge">
<title>UsersService&#45;&gt;AuthModule</title>
<path fill="none" stroke="black" d="M849.92,-109.76C849.92,-122.31 849.92,-151 849.92,-151 849.92,-151 728.73,-151 728.73,-151 728.73,-151 728.73,-152.08 728.73,-152.08"/>
<polygon fill="black" stroke="black" points="725.23,-151.8 728.73,-161.8 732.23,-151.8 725.23,-151.8"/>
</g>
<!-- UsersService&#45;&gt;UsersModule -->
<g id="edge17" class="edge">
<title>UsersService&#45;&gt;UsersModule</title>
<path fill="none" stroke="black" d="M852.81,-111.85C852.81,-111.85 852.81,-151.73 852.81,-151.73"/>
<polygon fill="black" stroke="black" points="849.32,-151.73 852.81,-161.73 856.32,-151.73 849.32,-151.73"/>
</g>
<!-- DatabaseModule -->
<g id="node13" class="node">
<title>DatabaseModule</title>
<polygon fill="#8dd3c7" stroke="black" points="234.35,-122 231.35,-126 210.35,-126 207.35,-122 123.65,-122 123.65,-86 234.35,-86 234.35,-122"/>
<text text-anchor="middle" x="179" y="-99.8" font-family="Times,serif" font-size="14.00">DatabaseModule</text>
</g>
<!-- DatabaseModule&#45;&gt;CoreModule -->
<g id="edge13" class="edge">
<title>DatabaseModule&#45;&gt;CoreModule</title>
<path fill="none" stroke="black" d="M179,-122.03C179,-142.77 179,-174 179,-174 179,-174 423.67,-174 423.67,-174"/>
<polygon fill="black" stroke="black" points="423.67,-177.5 433.67,-174 423.67,-170.5 423.67,-177.5"/>
</g>
<!-- EnvModule -->
<g id="node14" class="node">
<title>EnvModule</title>
<polygon fill="#8dd3c7" stroke="black" points="106.1,-122 103.1,-126 82.1,-126 79.1,-122 23.9,-122 23.9,-86 106.1,-86 106.1,-122"/>
<text text-anchor="middle" x="65" y="-99.8" font-family="Times,serif" font-size="14.00">EnvModule</text>
</g>
<!-- EnvModule&#45;&gt;CoreModule -->
<g id="edge14" class="edge">
<title>EnvModule&#45;&gt;CoreModule</title>
<path fill="none" stroke="black" d="M65,-122.2C65,-146.36 65,-186 65,-186 65,-186 423.69,-186 423.69,-186"/>
<polygon fill="black" stroke="black" points="423.69,-189.5 433.69,-186 423.69,-182.5 423.69,-189.5"/>
</g>
</g>
</svg>
