<?xml version="1.0" encoding="UTF-8" standalone="no"?>
<!DOCTYPE svg PUBLIC "-//W3C//DTD SVG 1.1//EN"
 "http://www.w3.org/Graphics/SVG/1.1/DTD/svg11.dtd">
<!-- Generated by graphviz version 2.47.0 (20210316.0004)
 -->
<!-- Title: dependencies Pages: 1 -->
<svg width="1146pt" height="287pt"
 viewBox="0.00 0.00 1146.00 287.00" xmlns="http://www.w3.org/2000/svg" xmlns:xlink="http://www.w3.org/1999/xlink">
<g id="graph0" class="graph" transform="scale(1 1) rotate(0) translate(4 283)">
<title>dependencies</title>
<polygon fill="white" stroke="transparent" points="-4,4 -4,-283 1142,-283 1142,4 -4,4"/>
<text text-anchor="start" x="548.01" y="-42.4" font-family="Times-12" font-weight="bold" font-size="14.00">Legend</text>
<polygon fill="#ffffb3" stroke="transparent" points="335,-10 335,-30 355,-30 355,-10 335,-10"/>
<text text-anchor="start" x="358.63" y="-15.4" font-family="Times-12" font-size="14.00"> &#160;Declarations</text>
<polygon fill="#8dd3c7" stroke="transparent" points="448,-10 448,-30 468,-30 468,-10 448,-10"/>
<text text-anchor="start" x="471.73" y="-15.4" font-family="Times-12" font-size="14.00"> &#160;Module</text>
<polygon fill="#80b1d3" stroke="transparent" points="534,-10 534,-30 554,-30 554,-10 534,-10"/>
<text text-anchor="start" x="557.78" y="-15.4" font-family="Times-12" font-size="14.00"> &#160;Bootstrap</text>
<polygon fill="#fdb462" stroke="transparent" points="631,-10 631,-30 651,-30 651,-10 631,-10"/>
<text text-anchor="start" x="654.67" y="-15.4" font-family="Times-12" font-size="14.00"> &#160;Providers</text>
<polygon fill="#fb8072" stroke="transparent" points="727,-10 727,-30 747,-30 747,-10 727,-10"/>
<text text-anchor="start" x="750.73" y="-15.4" font-family="Times-12" font-size="14.00"> &#160;Exports</text>
<g id="clust1" class="cluster">
<title>cluster_AppModule</title>
<polygon fill="none" stroke="black" stroke-dasharray="1,5" points="420,-146 420,-271 879,-271 879,-146 420,-146"/>
</g>
<g id="clust3" class="cluster">
<title>cluster_AppModule_imports</title>
<polygon fill="none" stroke="black" points="428,-154 428,-206 871,-206 871,-154 428,-154"/>
</g>
<g id="clust7" class="cluster">
<title>cluster_AuthModule</title>
<polygon fill="none" stroke="black" stroke-dasharray="1,5" points="258,-70 258,-138 1130,-138 1130,-70 258,-70"/>
</g>
<g id="clust9" class="cluster">
<title>cluster_AuthModule_imports</title>
<polygon fill="none" stroke="black" points="994,-78 994,-130 1122,-130 1122,-78 994,-78"/>
</g>
<g id="clust12" class="cluster">
<title>cluster_AuthModule_providers</title>
<polygon fill="none" stroke="black" points="266,-78 266,-130 986,-130 986,-78 266,-78"/>
</g>
<g id="clust13" class="cluster">
<title>cluster_CommonModule</title>
<polygon fill="none" stroke="black" stroke-dasharray="1,5" points="988,-146 988,-214 1128,-214 1128,-146 988,-146"/>
</g>
<g id="clust16" class="cluster">
<title>cluster_CommonModule_exports</title>
<polygon fill="none" stroke="black" points="996,-154 996,-206 1120,-206 1120,-154 996,-154"/>
</g>
<g id="clust19" class="cluster">
<title>cluster_CoreModule</title>
<polygon fill="none" stroke="black" stroke-dasharray="1,5" points="8,-70 8,-138 250,-138 250,-70 8,-70"/>
</g>
<g id="clust21" class="cluster">
<title>cluster_CoreModule_imports</title>
<polygon fill="none" stroke="black" points="16,-78 16,-130 242,-130 242,-78 16,-78"/>
</g>
<!-- AuthModule -->
<g id="node1" class="node">
<title>AuthModule</title>
<polygon fill="#8dd3c7" stroke="black" points="753.55,-198 750.55,-202 729.55,-202 726.55,-198 666.45,-198 666.45,-162 753.55,-162 753.55,-198"/>
<text text-anchor="middle" x="710" y="-175.8" font-family="Times,serif" font-size="14.00">AuthModule</text>
</g>
<!-- AppModule -->
<g id="node5" class="node">
<title>AppModule</title>
<polygon fill="#8dd3c7" stroke="black" points="693.66,-263 690.66,-267 669.66,-267 666.66,-263 610.34,-263 610.34,-227 693.66,-227 693.66,-263"/>
<text text-anchor="middle" x="652" y="-240.8" font-family="Times,serif" font-size="14.00">AppModule</text>
</g>
<!-- AuthModule&#45;&gt;AppModule -->
<g id="edge1" class="edge">
<title>AuthModule&#45;&gt;AppModule</title>
<path fill="none" stroke="black" d="M680.03,-198.11C680.03,-198.11 680.03,-216.99 680.03,-216.99"/>
<polygon fill="black" stroke="black" points="676.53,-216.99 680.03,-226.99 683.53,-216.99 676.53,-216.99"/>
</g>
<!-- CoreModule -->
<g id="node2" class="node">
<title>CoreModule</title>
<polygon fill="#8dd3c7" stroke="black" points="522.26,-198 519.26,-202 498.26,-202 495.26,-198 435.74,-198 435.74,-162 522.26,-162 522.26,-198"/>
<text text-anchor="middle" x="479" y="-175.8" font-family="Times,serif" font-size="14.00">CoreModule</text>
</g>
<!-- CoreModule&#45;&gt;AppModule -->
<g id="edge2" class="edge">
<title>CoreModule&#45;&gt;AppModule</title>
<path fill="none" stroke="black" d="M479,-198.11C479,-217.34 479,-245 479,-245 479,-245 600.12,-245 600.12,-245"/>
<polygon fill="black" stroke="black" points="600.12,-248.5 610.12,-245 600.12,-241.5 600.12,-248.5"/>
</g>
<!-- SessionsModule -->
<g id="node3" class="node">
<title>SessionsModule</title>
<polygon fill="#8dd3c7" stroke="black" points="647.77,-198 644.77,-202 623.77,-202 620.77,-198 540.23,-198 540.23,-162 647.77,-162 647.77,-198"/>
<text text-anchor="middle" x="594" y="-175.8" font-family="Times,serif" font-size="14.00">SessionsModule</text>
</g>
<!-- SessionsModule&#45;&gt;AppModule -->
<g id="edge3" class="edge">
<title>SessionsModule&#45;&gt;AppModule</title>
<path fill="none" stroke="black" d="M629.03,-198.11C629.03,-198.11 629.03,-216.99 629.03,-216.99"/>
<polygon fill="black" stroke="black" points="625.53,-216.99 629.03,-226.99 632.53,-216.99 625.53,-216.99"/>
</g>
<!-- UsersModule -->
<g id="node4" class="node">
<title>UsersModule</title>
<polygon fill="#8dd3c7" stroke="black" points="862.92,-198 859.92,-202 838.92,-202 835.92,-198 771.08,-198 771.08,-162 862.92,-162 862.92,-198"/>
<text text-anchor="middle" x="817" y="-175.8" font-family="Times,serif" font-size="14.00">UsersModule</text>
</g>
<!-- UsersModule&#45;&gt;AppModule -->
<g id="edge4" class="edge">
<title>UsersModule&#45;&gt;AppModule</title>
<path fill="none" stroke="black" d="M817,-198.11C817,-217.34 817,-245 817,-245 817,-245 704.06,-245 704.06,-245"/>
<polygon fill="black" stroke="black" points="704.06,-241.5 694.06,-245 704.06,-248.5 704.06,-241.5"/>
</g>
<!-- CommonModule -->
<g id="node6" class="node">
<title>CommonModule</title>
<polygon fill="#8dd3c7" stroke="black" points="1113.67,-122 1110.67,-126 1089.67,-126 1086.67,-122 1002.33,-122 1002.33,-86 1113.67,-86 1113.67,-122"/>
<text text-anchor="middle" x="1058" y="-99.8" font-family="Times,serif" font-size="14.00">CommonModule</text>
</g>
<!-- CommonModule&#45;&gt;AuthModule -->
<g id="edge5" class="edge">
<title>CommonModule&#45;&gt;AuthModule</title>
<path fill="none" stroke="black" d="M1058,-122.24C1058,-137.57 1058,-157 1058,-157 1058,-157 744.75,-157 744.75,-157 744.75,-157 744.75,-157.49 744.75,-157.49"/>
<polygon fill="black" stroke="black" points="741.25,-151.88 744.75,-161.88 748.25,-151.88 741.25,-151.88"/>
</g>
<!-- CommonModule&#45;&gt;CoreModule -->
<g id="edge12" class="edge">
<title>CommonModule&#45;&gt;CoreModule</title>
<path fill="none" stroke="black" d="M1030.97,-122.19C1030.97,-125.54 1030.97,-128 1030.97,-128 1030.97,-128 480.09,-128 480.09,-128 480.09,-128 480.09,-151.81 480.09,-151.81"/>
<polygon fill="black" stroke="black" points="476.59,-151.81 480.09,-161.81 483.59,-151.81 476.59,-151.81"/>
</g>
<!-- CommonModule&#45;&gt;UsersModule -->
<g id="edge16" class="edge">
<title>CommonModule&#45;&gt;UsersModule</title>
<path fill="none" stroke="black" d="M1002.22,-104C995.01,-104 990.07,-104 990.07,-104 990.07,-104 990.07,-180 990.07,-180 990.07,-180 872.93,-180 872.93,-180"/>
<polygon fill="black" stroke="black" points="872.93,-176.5 862.93,-180 872.93,-183.5 872.93,-176.5"/>
</g>
<!-- HashingService  -->
<g id="node12" class="node">
<title>HashingService </title>
<polygon fill="#fb8072" stroke="black" points="1112.13,-198 1003.87,-198 1003.87,-162 1112.13,-162 1112.13,-198"/>
<text text-anchor="middle" x="1058" y="-175.8" font-family="Times,serif" font-size="14.00">HashingService </text>
</g>
<!-- CommonModule&#45;&gt;HashingService  -->
<g id="edge11" class="edge">
<title>CommonModule&#45;&gt;HashingService </title>
<path fill="none" stroke="black" stroke-dasharray="5,2" d="M1085.03,-122.01C1085.03,-122.01 1085.03,-151.85 1085.03,-151.85"/>
<polygon fill="black" stroke="black" points="1081.53,-151.85 1085.03,-161.85 1088.53,-151.85 1081.53,-151.85"/>
</g>
<!-- AuthService -->
<g id="node7" class="node">
<title>AuthService</title>
<ellipse fill="#fdb462" stroke="black" cx="777" cy="-104" rx="59.11" ry="18"/>
<text text-anchor="middle" x="777" y="-99.8" font-family="Times,serif" font-size="14.00">AuthService</text>
</g>
<!-- AuthService&#45;&gt;AuthModule -->
<g id="edge6" class="edge">
<title>AuthService&#45;&gt;AuthModule</title>
<path fill="none" stroke="black" d="M726.72,-113.63C726.72,-113.63 726.72,-151.75 726.72,-151.75"/>
<polygon fill="black" stroke="black" points="723.22,-151.75 726.72,-161.75 730.22,-151.75 723.22,-151.75"/>
</g>
<!-- JwtStrategy -->
<g id="node8" class="node">
<title>JwtStrategy</title>
<ellipse fill="#fdb462" stroke="black" cx="643" cy="-104" rx="56.76" ry="18"/>
<text text-anchor="middle" x="643" y="-99.8" font-family="Times,serif" font-size="14.00">JwtStrategy</text>
</g>
<!-- JwtStrategy&#45;&gt;AuthModule -->
<g id="edge7" class="edge">
<title>JwtStrategy&#45;&gt;AuthModule</title>
<path fill="none" stroke="black" d="M691.28,-113.63C691.28,-113.63 691.28,-151.75 691.28,-151.75"/>
<polygon fill="black" stroke="black" points="687.78,-151.75 691.28,-161.75 694.78,-151.75 687.78,-151.75"/>
</g>
<!-- LocalStrategy -->
<g id="node9" class="node">
<title>LocalStrategy</title>
<ellipse fill="#fdb462" stroke="black" cx="503" cy="-104" rx="65.41" ry="18"/>
<text text-anchor="middle" x="503" y="-99.8" font-family="Times,serif" font-size="14.00">LocalStrategy</text>
</g>
<!-- LocalStrategy&#45;&gt;AuthModule -->
<g id="edge8" class="edge">
<title>LocalStrategy&#45;&gt;AuthModule</title>
<path fill="none" stroke="black" d="M558.84,-113.49C558.84,-122.28 558.84,-134 558.84,-134 558.84,-134 682.93,-134 682.93,-134 682.93,-134 682.93,-151.82 682.93,-151.82"/>
<polygon fill="black" stroke="black" points="679.43,-151.82 682.93,-161.82 686.43,-151.82 679.43,-151.82"/>
</g>
<!-- SessionsService -->
<g id="node10" class="node">
<title>SessionsService</title>
<ellipse fill="#fdb462" stroke="black" cx="347" cy="-104" rx="73.01" ry="18"/>
<text text-anchor="middle" x="347" y="-99.8" font-family="Times,serif" font-size="14.00">SessionsService</text>
</g>
<!-- SessionsService&#45;&gt;AuthModule -->
<g id="edge9" class="edge">
<title>SessionsService&#45;&gt;AuthModule</title>
<path fill="none" stroke="black" d="M371.42,-121.16C371.42,-130.43 371.42,-140 371.42,-140 371.42,-140 674.58,-140 674.58,-140 674.58,-140 674.58,-151.87 674.58,-151.87"/>
<polygon fill="black" stroke="black" points="671.08,-151.87 674.58,-161.87 678.08,-151.87 671.08,-151.87"/>
</g>
<!-- SessionsService&#45;&gt;SessionsModule -->
<g id="edge15" class="edge">
<title>SessionsService&#45;&gt;SessionsModule</title>
<path fill="none" stroke="black" d="M322.58,-121.15C322.58,-132.39 322.58,-145 322.58,-145 322.58,-145 549.48,-145 549.48,-145 549.48,-145 549.48,-151.68 549.48,-151.68"/>
<polygon fill="black" stroke="black" points="545.98,-151.68 549.48,-161.68 552.98,-151.68 545.98,-151.68"/>
</g>
<!-- UsersService -->
<g id="node11" class="node">
<title>UsersService</title>
<ellipse fill="#fdb462" stroke="black" cx="916" cy="-104" rx="61.95" ry="18"/>
<text text-anchor="middle" x="916" y="-99.8" font-family="Times,serif" font-size="14.00">UsersService</text>
</g>
<!-- UsersService&#45;&gt;AuthModule -->
<g id="edge10" class="edge">
<title>UsersService&#45;&gt;AuthModule</title>
<path fill="none" stroke="black" d="M856.92,-109.76C856.92,-122.31 856.92,-151 856.92,-151 856.92,-151 735.73,-151 735.73,-151 735.73,-151 735.73,-152.08 735.73,-152.08"/>
<polygon fill="black" stroke="black" points="732.23,-151.8 735.73,-161.8 739.23,-151.8 732.23,-151.8"/>
</g>
<!-- UsersService&#45;&gt;UsersModule -->
<g id="edge17" class="edge">
<title>UsersService&#45;&gt;UsersModule</title>
<path fill="none" stroke="black" d="M859.81,-111.85C859.81,-111.85 859.81,-151.73 859.81,-151.73"/>
<polygon fill="black" stroke="black" points="856.32,-151.73 859.81,-161.73 863.32,-151.73 856.32,-151.73"/>
</g>
<!-- DatabaseModule -->
<g id="node13" class="node">
<title>DatabaseModule</title>
<polygon fill="#8dd3c7" stroke="black" points="234.35,-122 231.35,-126 210.35,-126 207.35,-122 123.65,-122 123.65,-86 234.35,-86 234.35,-122"/>
<text text-anchor="middle" x="179" y="-99.8" font-family="Times,serif" font-size="14.00">DatabaseModule</text>
</g>
<!-- DatabaseModule&#45;&gt;CoreModule -->
<g id="edge13" class="edge">
<title>DatabaseModule&#45;&gt;CoreModule</title>
<path fill="none" stroke="black" d="M179,-122.03C179,-142.77 179,-174 179,-174 179,-174 425.7,-174 425.7,-174"/>
<polygon fill="black" stroke="black" points="425.7,-177.5 435.7,-174 425.7,-170.5 425.7,-177.5"/>
</g>
<!-- EnvModule -->
<g id="node14" class="node">
<title>EnvModule</title>
<polygon fill="#8dd3c7" stroke="black" points="106.1,-122 103.1,-126 82.1,-126 79.1,-122 23.9,-122 23.9,-86 106.1,-86 106.1,-122"/>
<text text-anchor="middle" x="65" y="-99.8" font-family="Times,serif" font-size="14.00">EnvModule</text>
</g>
<!-- EnvModule&#45;&gt;CoreModule -->
<g id="edge14" class="edge">
<title>EnvModule&#45;&gt;CoreModule</title>
<path fill="none" stroke="black" d="M65,-122.2C65,-146.36 65,-186 65,-186 65,-186 425.48,-186 425.48,-186"/>
<polygon fill="black" stroke="black" points="425.48,-189.5 435.48,-186 425.48,-182.5 425.48,-189.5"/>
</g>
</g>
</svg>
