<?xml version="1.0" encoding="UTF-8" standalone="no"?>
<!DOCTYPE svg PUBLIC "-//W3C//DTD SVG 1.1//EN"
 "http://www.w3.org/Graphics/SVG/1.1/DTD/svg11.dtd">
<!-- Generated by graphviz version 2.47.0 (20210316.0004)
 -->
<!-- Title: dependencies Pages: 1 -->
<svg width="1144pt" height="352pt"
 viewBox="0.00 0.00 1144.00 352.00" xmlns="http://www.w3.org/2000/svg" xmlns:xlink="http://www.w3.org/1999/xlink">
<g id="graph0" class="graph" transform="scale(1 1) rotate(0) translate(4 348)">
<title>dependencies</title>
<polygon fill="white" stroke="transparent" points="-4,4 -4,-348 1140,-348 1140,4 -4,4"/>
<text text-anchor="start" x="547.01" y="-42.4" font-family="Times-12" font-weight="bold" font-size="14.00">Legend</text>
<polygon fill="#ffffb3" stroke="transparent" points="334,-10 334,-30 354,-30 354,-10 334,-10"/>
<text text-anchor="start" x="357.63" y="-15.4" font-family="Times-12" font-size="14.00"> &#160;Declarations</text>
<polygon fill="#8dd3c7" stroke="transparent" points="447,-10 447,-30 467,-30 467,-10 447,-10"/>
<text text-anchor="start" x="470.73" y="-15.4" font-family="Times-12" font-size="14.00"> &#160;Module</text>
<polygon fill="#80b1d3" stroke="transparent" points="533,-10 533,-30 553,-30 553,-10 533,-10"/>
<text text-anchor="start" x="556.78" y="-15.4" font-family="Times-12" font-size="14.00"> &#160;Bootstrap</text>
<polygon fill="#fdb462" stroke="transparent" points="630,-10 630,-30 650,-30 650,-10 630,-10"/>
<text text-anchor="start" x="653.67" y="-15.4" font-family="Times-12" font-size="14.00"> &#160;Providers</text>
<polygon fill="#fb8072" stroke="transparent" points="726,-10 726,-30 746,-30 746,-10 726,-10"/>
<text text-anchor="start" x="749.73" y="-15.4" font-family="Times-12" font-size="14.00"> &#160;Exports</text>
<g id="clust1" class="cluster">
<title>cluster_AppModule</title>
<polygon fill="none" stroke="black" stroke-dasharray="1,5" points="490,-146 490,-336 835,-336 835,-146 490,-146"/>
</g>
<g id="clust3" class="cluster">
<title>cluster_AppModule_imports</title>
<polygon fill="none" stroke="black" points="498,-154 498,-271 827,-271 827,-154 498,-154"/>
</g>
<g id="clust43" class="cluster">
<title>cluster_UsersModule</title>
<polygon fill="none" stroke="black" stroke-dasharray="1,5" points="326,-146 326,-214 482,-214 482,-146 326,-146"/>
</g>
<g id="clust48" class="cluster">
<title>cluster_UsersModule_providers</title>
<polygon fill="none" stroke="black" points="334,-154 334,-206 474,-206 474,-154 334,-154"/>
</g>
<g id="clust37" class="cluster">
<title>cluster_SessionModule</title>
<polygon fill="none" stroke="black" stroke-dasharray="1,5" points="578,-70 578,-138 748,-138 748,-70 578,-70"/>
</g>
<g id="clust42" class="cluster">
<title>cluster_SessionModule_providers</title>
<polygon fill="none" stroke="black" points="586,-78 586,-130 740,-130 740,-78 586,-78"/>
</g>
<g id="clust7" class="cluster">
<title>cluster_AuthModule</title>
<polygon fill="none" stroke="black" stroke-dasharray="1,5" points="8,-70 8,-138 570,-138 570,-70 8,-70"/>
</g>
<g id="clust12" class="cluster">
<title>cluster_AuthModule_providers</title>
<polygon fill="none" stroke="black" points="148,-78 148,-130 562,-130 562,-78 148,-78"/>
</g>
<g id="clust10" class="cluster">
<title>cluster_AuthModule_exports</title>
<polygon fill="none" stroke="black" points="16,-78 16,-130 140,-130 140,-78 16,-78"/>
</g>
<g id="clust19" class="cluster">
<title>cluster_CoreModule</title>
<polygon fill="none" stroke="black" stroke-dasharray="1,5" points="756,-70 756,-138 1128,-138 1128,-70 756,-70"/>
</g>
<g id="clust21" class="cluster">
<title>cluster_CoreModule_imports</title>
<polygon fill="none" stroke="black" points="764,-78 764,-130 1120,-130 1120,-78 764,-78"/>
</g>
<!-- AuthModule -->
<g id="node1" class="node">
<title>AuthModule</title>
<polygon fill="#8dd3c7" stroke="black" points="593.55,-198 590.55,-202 569.55,-202 566.55,-198 506.45,-198 506.45,-162 593.55,-162 593.55,-198"/>
<text text-anchor="middle" x="550" y="-175.8" font-family="Times,serif" font-size="14.00">AuthModule</text>
</g>
<!-- UsersModule -->
<g id="node4" class="node">
<title>UsersModule</title>
<polygon fill="#8dd3c7" stroke="black" points="597.92,-263 594.92,-267 573.92,-267 570.92,-263 506.08,-263 506.08,-227 597.92,-227 597.92,-263"/>
<text text-anchor="middle" x="552" y="-240.8" font-family="Times,serif" font-size="14.00">UsersModule</text>
</g>
<!-- AuthModule&#45;&gt;UsersModule -->
<g id="edge14" class="edge">
<title>AuthModule&#45;&gt;UsersModule</title>
<path fill="none" stroke="black" d="M550.03,-198.11C550.03,-198.11 550.03,-216.99 550.03,-216.99"/>
<polygon fill="black" stroke="black" points="546.53,-216.99 550.03,-226.99 553.53,-216.99 546.53,-216.99"/>
</g>
<!-- AppModule -->
<g id="node5" class="node">
<title>AppModule</title>
<polygon fill="#8dd3c7" stroke="black" points="684.66,-328 681.66,-332 660.66,-332 657.66,-328 601.34,-328 601.34,-292 684.66,-292 684.66,-328"/>
<text text-anchor="middle" x="643" y="-305.8" font-family="Times,serif" font-size="14.00">AppModule</text>
</g>
<!-- AuthModule&#45;&gt;AppModule -->
<g id="edge1" class="edge">
<title>AuthModule&#45;&gt;AppModule</title>
<path fill="none" stroke="black" d="M593.62,-186C602.49,-186 609.17,-186 609.17,-186 609.17,-186 609.17,-281.97 609.17,-281.97"/>
<polygon fill="black" stroke="black" points="605.67,-281.97 609.17,-291.97 612.67,-281.97 605.67,-281.97"/>
</g>
<!-- HashingService  -->
<g id="node6" class="node">
<title>HashingService </title>
<polygon fill="#fb8072" stroke="black" points="132.13,-122 23.87,-122 23.87,-86 132.13,-86 132.13,-122"/>
<text text-anchor="middle" x="78" y="-99.8" font-family="Times,serif" font-size="14.00">HashingService </text>
</g>
<!-- AuthModule&#45;&gt;HashingService  -->
<g id="edge5" class="edge">
<title>AuthModule&#45;&gt;HashingService </title>
<path fill="none" stroke="black" stroke-dasharray="5,2" d="M515.84,-161.79C515.84,-156.45 515.84,-152 515.84,-152 515.84,-152 78,-152 78,-152 78,-152 78,-132.15 78,-132.15"/>
<polygon fill="black" stroke="black" points="81.5,-132.15 78,-122.15 74.5,-132.15 81.5,-132.15"/>
</g>
<!-- CoreModule -->
<g id="node2" class="node">
<title>CoreModule</title>
<polygon fill="#8dd3c7" stroke="black" points="819.26,-198 816.26,-202 795.26,-202 792.26,-198 732.74,-198 732.74,-162 819.26,-162 819.26,-198"/>
<text text-anchor="middle" x="776" y="-175.8" font-family="Times,serif" font-size="14.00">CoreModule</text>
</g>
<!-- CoreModule&#45;&gt;AppModule -->
<g id="edge2" class="edge">
<title>CoreModule&#45;&gt;AppModule</title>
<path fill="none" stroke="black" d="M776,-198.08C776,-233.8 776,-310 776,-310 776,-310 694.72,-310 694.72,-310"/>
<polygon fill="black" stroke="black" points="694.72,-306.5 684.72,-310 694.72,-313.5 694.72,-306.5"/>
</g>
<!-- SessionModule -->
<g id="node3" class="node">
<title>SessionModule</title>
<polygon fill="#8dd3c7" stroke="black" points="714.33,-198 711.33,-202 690.33,-202 687.33,-198 611.67,-198 611.67,-162 714.33,-162 714.33,-198"/>
<text text-anchor="middle" x="663" y="-175.8" font-family="Times,serif" font-size="14.00">SessionModule</text>
</g>
<!-- SessionModule&#45;&gt;AppModule -->
<g id="edge3" class="edge">
<title>SessionModule&#45;&gt;AppModule</title>
<path fill="none" stroke="black" d="M648.33,-198.08C648.33,-198.08 648.33,-281.66 648.33,-281.66"/>
<polygon fill="black" stroke="black" points="644.83,-281.66 648.33,-291.66 651.83,-281.66 644.83,-281.66"/>
</g>
<!-- UsersModule&#45;&gt;AppModule -->
<g id="edge4" class="edge">
<title>UsersModule&#45;&gt;AppModule</title>
<path fill="none" stroke="black" d="M597.99,-245C603.1,-245 606.5,-245 606.5,-245 606.5,-245 606.5,-281.89 606.5,-281.89"/>
<polygon fill="black" stroke="black" points="603,-281.89 606.5,-291.89 610,-281.89 603,-281.89"/>
</g>
<!-- AuthService -->
<g id="node7" class="node">
<title>AuthService</title>
<ellipse fill="#fdb462" stroke="black" cx="495" cy="-104" rx="59.11" ry="18"/>
<text text-anchor="middle" x="495" y="-99.8" font-family="Times,serif" font-size="14.00">AuthService</text>
</g>
<!-- AuthService&#45;&gt;AuthModule -->
<g id="edge6" class="edge">
<title>AuthService&#45;&gt;AuthModule</title>
<path fill="none" stroke="black" d="M544.69,-113.94C544.69,-113.94 544.69,-151.91 544.69,-151.91"/>
<polygon fill="black" stroke="black" points="541.19,-151.91 544.69,-161.91 548.19,-151.91 541.19,-151.91"/>
</g>
<!-- JwtStrategy -->
<g id="node8" class="node">
<title>JwtStrategy</title>
<ellipse fill="#fdb462" stroke="black" cx="361" cy="-104" rx="56.76" ry="18"/>
<text text-anchor="middle" x="361" y="-99.8" font-family="Times,serif" font-size="14.00">JwtStrategy</text>
</g>
<!-- JwtStrategy&#45;&gt;AuthModule -->
<g id="edge7" class="edge">
<title>JwtStrategy&#45;&gt;AuthModule</title>
<path fill="none" stroke="black" d="M379.83,-121.25C379.83,-127.02 379.83,-132 379.83,-132 379.83,-132 535.07,-132 535.07,-132 535.07,-132 535.07,-151.85 535.07,-151.85"/>
<polygon fill="black" stroke="black" points="531.57,-151.85 535.07,-161.85 538.57,-151.85 531.57,-151.85"/>
</g>
<!-- LocalStrategy -->
<g id="node9" class="node">
<title>LocalStrategy</title>
<ellipse fill="#fdb462" stroke="black" cx="221" cy="-104" rx="65.41" ry="18"/>
<text text-anchor="middle" x="221" y="-99.8" font-family="Times,serif" font-size="14.00">LocalStrategy</text>
</g>
<!-- LocalStrategy&#45;&gt;AuthModule -->
<g id="edge8" class="edge">
<title>LocalStrategy&#45;&gt;AuthModule</title>
<path fill="none" stroke="black" d="M221,-122.11C221,-131.9 221,-142 221,-142 221,-142 525.46,-142 525.46,-142 525.46,-142 525.46,-151.89 525.46,-151.89"/>
<polygon fill="black" stroke="black" points="521.96,-151.89 525.46,-161.89 528.96,-151.89 521.96,-151.89"/>
</g>
<!-- SessionService -->
<g id="node10" class="node">
<title>SessionService</title>
<ellipse fill="#fdb462" stroke="black" cx="663" cy="-104" rx="69.5" ry="18"/>
<text text-anchor="middle" x="663" y="-99.8" font-family="Times,serif" font-size="14.00">SessionService</text>
</g>
<!-- SessionService&#45;&gt;AuthModule -->
<g id="edge9" class="edge">
<title>SessionService&#45;&gt;AuthModule</title>
<path fill="none" stroke="black" d="M603.84,-113.73C603.84,-132.97 603.84,-174 603.84,-174 603.84,-174 602.85,-174 602.85,-174"/>
<polygon fill="black" stroke="black" points="603.96,-170.5 593.96,-174 603.96,-177.5 603.96,-170.5"/>
</g>
<!-- SessionService&#45;&gt;SessionModule -->
<g id="edge13" class="edge">
<title>SessionService&#45;&gt;SessionModule</title>
<path fill="none" stroke="black" d="M663,-122.01C663,-122.01 663,-151.85 663,-151.85"/>
<polygon fill="black" stroke="black" points="659.5,-151.85 663,-161.85 666.5,-151.85 659.5,-151.85"/>
</g>
<!-- CommonModule -->
<g id="node11" class="node">
<title>CommonModule</title>
<polygon fill="#8dd3c7" stroke="black" points="1111.67,-122 1108.67,-126 1087.67,-126 1084.67,-122 1000.33,-122 1000.33,-86 1111.67,-86 1111.67,-122"/>
<text text-anchor="middle" x="1056" y="-99.8" font-family="Times,serif" font-size="14.00">CommonModule</text>
</g>
<!-- CommonModule&#45;&gt;CoreModule -->
<g id="edge10" class="edge">
<title>CommonModule&#45;&gt;CoreModule</title>
<path fill="none" stroke="black" d="M1056,-122.2C1056,-146.36 1056,-186 1056,-186 1056,-186 829.44,-186 829.44,-186"/>
<polygon fill="black" stroke="black" points="829.44,-182.5 819.44,-186 829.44,-189.5 829.44,-182.5"/>
</g>
<!-- DatabaseModule -->
<g id="node12" class="node">
<title>DatabaseModule</title>
<polygon fill="#8dd3c7" stroke="black" points="982.35,-122 979.35,-126 958.35,-126 955.35,-122 871.65,-122 871.65,-86 982.35,-86 982.35,-122"/>
<text text-anchor="middle" x="927" y="-99.8" font-family="Times,serif" font-size="14.00">DatabaseModule</text>
</g>
<!-- DatabaseModule&#45;&gt;CoreModule -->
<g id="edge11" class="edge">
<title>DatabaseModule&#45;&gt;CoreModule</title>
<path fill="none" stroke="black" d="M927,-122.03C927,-142.77 927,-174 927,-174 927,-174 829.27,-174 829.27,-174"/>
<polygon fill="black" stroke="black" points="829.27,-170.5 819.27,-174 829.27,-177.5 829.27,-170.5"/>
</g>
<!-- EnvModule -->
<g id="node13" class="node">
<title>EnvModule</title>
<polygon fill="#8dd3c7" stroke="black" points="854.1,-122 851.1,-126 830.1,-126 827.1,-122 771.9,-122 771.9,-86 854.1,-86 854.1,-122"/>
<text text-anchor="middle" x="813" y="-99.8" font-family="Times,serif" font-size="14.00">EnvModule</text>
</g>
<!-- EnvModule&#45;&gt;CoreModule -->
<g id="edge12" class="edge">
<title>EnvModule&#45;&gt;CoreModule</title>
<path fill="none" stroke="black" d="M795.66,-122.01C795.66,-122.01 795.66,-151.85 795.66,-151.85"/>
<polygon fill="black" stroke="black" points="792.16,-151.85 795.66,-161.85 799.16,-151.85 792.16,-151.85"/>
</g>
<!-- UsersService -->
<g id="node14" class="node">
<title>UsersService</title>
<ellipse fill="#fdb462" stroke="black" cx="404" cy="-180" rx="61.95" ry="18"/>
<text text-anchor="middle" x="404" y="-175.8" font-family="Times,serif" font-size="14.00">UsersService</text>
</g>
<!-- UsersService&#45;&gt;UsersModule -->
<g id="edge15" class="edge">
<title>UsersService&#45;&gt;UsersModule</title>
<path fill="none" stroke="black" d="M404,-198.11C404,-217.34 404,-245 404,-245 404,-245 495.98,-245 495.98,-245"/>
<polygon fill="black" stroke="black" points="495.98,-248.5 505.98,-245 495.98,-241.5 495.98,-248.5"/>
</g>
</g>
</svg>
