<?xml version="1.0" encoding="UTF-8" standalone="no"?>
<!DOCTYPE svg PUBLIC "-//W3C//DTD SVG 1.1//EN"
 "http://www.w3.org/Graphics/SVG/1.1/DTD/svg11.dtd">
<!-- Generated by graphviz version 2.47.0 (20210316.0004)
 -->
<!-- Title: dependencies Pages: 1 -->
<svg width="1381pt" height="306pt"
 viewBox="0.00 0.00 1381.00 306.00" xmlns="http://www.w3.org/2000/svg" xmlns:xlink="http://www.w3.org/1999/xlink">
<g id="graph0" class="graph" transform="scale(1 1) rotate(0) translate(4 302)">
<title>dependencies</title>
<polygon fill="white" stroke="transparent" points="-4,4 -4,-302 1377,-302 1377,4 -4,4"/>
<text text-anchor="start" x="665.51" y="-42.4" font-family="Times-12" font-weight="bold" font-size="14.00">Legend</text>
<polygon fill="#ffffb3" stroke="transparent" points="452.5,-10 452.5,-30 472.5,-30 472.5,-10 452.5,-10"/>
<text text-anchor="start" x="476.13" y="-15.4" font-family="Times-12" font-size="14.00"> &#160;Declarations</text>
<polygon fill="#8dd3c7" stroke="transparent" points="565.5,-10 565.5,-30 585.5,-30 585.5,-10 565.5,-10"/>
<text text-anchor="start" x="589.23" y="-15.4" font-family="Times-12" font-size="14.00"> &#160;Module</text>
<polygon fill="#80b1d3" stroke="transparent" points="651.5,-10 651.5,-30 671.5,-30 671.5,-10 651.5,-10"/>
<text text-anchor="start" x="675.28" y="-15.4" font-family="Times-12" font-size="14.00"> &#160;Bootstrap</text>
<polygon fill="#fdb462" stroke="transparent" points="748.5,-10 748.5,-30 768.5,-30 768.5,-10 748.5,-10"/>
<text text-anchor="start" x="772.17" y="-15.4" font-family="Times-12" font-size="14.00"> &#160;Providers</text>
<polygon fill="#fb8072" stroke="transparent" points="844.5,-10 844.5,-30 864.5,-30 864.5,-10 844.5,-10"/>
<text text-anchor="start" x="868.23" y="-15.4" font-family="Times-12" font-size="14.00"> &#160;Exports</text>
<g id="clust1" class="cluster">
<title>cluster_AppModule</title>
<polygon fill="none" stroke="black" stroke-dasharray="1,5" points="303,-146 303,-282 763,-282 763,-146 303,-146"/>
</g>
<g id="clust3" class="cluster">
<title>cluster_AppModule_imports</title>
<polygon fill="none" stroke="black" points="311,-154 311,-206 755,-206 755,-154 311,-154"/>
</g>
<g id="clust7" class="cluster">
<title>cluster_AuthModule</title>
<polygon fill="none" stroke="black" stroke-dasharray="1,5" points="8,-70 8,-138 438,-138 438,-70 8,-70"/>
</g>
<g id="clust12" class="cluster">
<title>cluster_AuthModule_providers</title>
<polygon fill="none" stroke="black" points="16,-78 16,-130 430,-130 430,-78 16,-78"/>
</g>
<g id="clust13" class="cluster">
<title>cluster_CommonModule</title>
<polygon fill="none" stroke="black" stroke-dasharray="1,5" points="771,-78 771,-214 917,-214 917,-78 771,-78"/>
</g>
<g id="clust16" class="cluster">
<title>cluster_CommonModule_exports</title>
<polygon fill="none" stroke="black" points="779,-154 779,-206 909,-206 909,-154 779,-154"/>
</g>
<g id="clust19" class="cluster">
<title>cluster_CoreModule</title>
<polygon fill="none" stroke="black" stroke-dasharray="1,5" points="446,-70 446,-138 688,-138 688,-70 446,-70"/>
</g>
<g id="clust21" class="cluster">
<title>cluster_CoreModule_imports</title>
<polygon fill="none" stroke="black" points="454,-78 454,-130 680,-130 680,-78 454,-78"/>
</g>
<g id="clust37" class="cluster">
<title>cluster_SessionsModule</title>
<polygon fill="none" stroke="black" stroke-dasharray="1,5" points="771,-222 771,-290 1083,-290 1083,-222 771,-222"/>
</g>
<g id="clust40" class="cluster">
<title>cluster_SessionsModule_exports</title>
<polygon fill="none" stroke="black" points="949,-230 949,-282 1075,-282 1075,-230 949,-230"/>
</g>
<g id="clust42" class="cluster">
<title>cluster_SessionsModule_providers</title>
<polygon fill="none" stroke="black" points="779,-230 779,-282 941,-282 941,-230 779,-230"/>
</g>
<g id="clust43" class="cluster">
<title>cluster_UsersModule</title>
<polygon fill="none" stroke="black" stroke-dasharray="1,5" points="1091,-222 1091,-290 1365,-290 1365,-222 1091,-222"/>
</g>
<g id="clust46" class="cluster">
<title>cluster_UsersModule_exports</title>
<polygon fill="none" stroke="black" points="1247,-230 1247,-282 1357,-282 1357,-230 1247,-230"/>
</g>
<g id="clust48" class="cluster">
<title>cluster_UsersModule_providers</title>
<polygon fill="none" stroke="black" points="1099,-230 1099,-282 1239,-282 1239,-230 1099,-230"/>
</g>
<!-- AuthModule -->
<g id="node1" class="node">
<title>AuthModule</title>
<polygon fill="#8dd3c7" stroke="black" points="406.55,-198 403.55,-202 382.55,-202 379.55,-198 319.45,-198 319.45,-162 406.55,-162 406.55,-198"/>
<text text-anchor="middle" x="363" y="-175.8" font-family="Times,serif" font-size="14.00">AuthModule</text>
</g>
<!-- AppModule -->
<g id="node5" class="node">
<title>AppModule</title>
<polygon fill="#8dd3c7" stroke="black" points="566.66,-274 563.66,-278 542.66,-278 539.66,-274 483.34,-274 483.34,-238 566.66,-238 566.66,-274"/>
<text text-anchor="middle" x="525" y="-251.8" font-family="Times,serif" font-size="14.00">AppModule</text>
</g>
<!-- AuthModule&#45;&gt;AppModule -->
<g id="edge1" class="edge">
<title>AuthModule&#45;&gt;AppModule</title>
<path fill="none" stroke="black" d="M363,-198.01C363,-220.49 363,-256 363,-256 363,-256 473.28,-256 473.28,-256"/>
<polygon fill="black" stroke="black" points="473.28,-259.5 483.28,-256 473.28,-252.5 473.28,-259.5"/>
</g>
<!-- CoreModule -->
<g id="node2" class="node">
<title>CoreModule</title>
<polygon fill="#8dd3c7" stroke="black" points="511.26,-198 508.26,-202 487.26,-202 484.26,-198 424.74,-198 424.74,-162 511.26,-162 511.26,-198"/>
<text text-anchor="middle" x="468" y="-175.8" font-family="Times,serif" font-size="14.00">CoreModule</text>
</g>
<!-- CoreModule&#45;&gt;AppModule -->
<g id="edge2" class="edge">
<title>CoreModule&#45;&gt;AppModule</title>
<path fill="none" stroke="black" d="M497.28,-198.01C497.28,-198.01 497.28,-227.85 497.28,-227.85"/>
<polygon fill="black" stroke="black" points="493.78,-227.85 497.28,-237.85 500.78,-227.85 493.78,-227.85"/>
</g>
<!-- SessionsModule -->
<g id="node3" class="node">
<title>SessionsModule</title>
<polygon fill="#8dd3c7" stroke="black" points="636.77,-198 633.77,-202 612.77,-202 609.77,-198 529.23,-198 529.23,-162 636.77,-162 636.77,-198"/>
<text text-anchor="middle" x="583" y="-175.8" font-family="Times,serif" font-size="14.00">SessionsModule</text>
</g>
<!-- SessionsModule&#45;&gt;AppModule -->
<g id="edge3" class="edge">
<title>SessionsModule&#45;&gt;AppModule</title>
<path fill="none" stroke="black" d="M547.97,-198.01C547.97,-198.01 547.97,-227.85 547.97,-227.85"/>
<polygon fill="black" stroke="black" points="544.47,-227.85 547.97,-237.85 551.47,-227.85 544.47,-227.85"/>
</g>
<!-- SessionsService  -->
<g id="node13" class="node">
<title>SessionsService </title>
<polygon fill="#fb8072" stroke="black" points="1066.7,-274 957.3,-274 957.3,-238 1066.7,-238 1066.7,-274"/>
<text text-anchor="middle" x="1012" y="-251.8" font-family="Times,serif" font-size="14.00">SessionsService </text>
</g>
<!-- SessionsModule&#45;&gt;SessionsService  -->
<g id="edge12" class="edge">
<title>SessionsModule&#45;&gt;SessionsService </title>
<path fill="none" stroke="black" stroke-dasharray="5,2" d="M590.18,-198.15C590.18,-211.74 590.18,-228 590.18,-228 590.18,-228 1012,-228 1012,-228 1012,-228 1012,-228.98 1012,-228.98"/>
<polygon fill="black" stroke="black" points="1008.5,-227.79 1012,-237.79 1015.5,-227.79 1008.5,-227.79"/>
</g>
<!-- UsersModule -->
<g id="node4" class="node">
<title>UsersModule</title>
<polygon fill="#8dd3c7" stroke="black" points="746.92,-198 743.92,-202 722.92,-202 719.92,-198 655.08,-198 655.08,-162 746.92,-162 746.92,-198"/>
<text text-anchor="middle" x="701" y="-175.8" font-family="Times,serif" font-size="14.00">UsersModule</text>
</g>
<!-- UsersModule&#45;&gt;AppModule -->
<g id="edge4" class="edge">
<title>UsersModule&#45;&gt;AppModule</title>
<path fill="none" stroke="black" d="M723.86,-198.03C723.86,-218.77 723.86,-250 723.86,-250 723.86,-250 576.69,-250 576.69,-250"/>
<polygon fill="black" stroke="black" points="576.69,-246.5 566.69,-250 576.69,-253.5 576.69,-246.5"/>
</g>
<!-- UsersService  -->
<g id="node15" class="node">
<title>UsersService </title>
<polygon fill="#fb8072" stroke="black" points="1348.85,-274 1255.15,-274 1255.15,-238 1348.85,-238 1348.85,-274"/>
<text text-anchor="middle" x="1302" y="-251.8" font-family="Times,serif" font-size="14.00">UsersService </text>
</g>
<!-- UsersModule&#45;&gt;UsersService  -->
<g id="edge14" class="edge">
<title>UsersModule&#45;&gt;UsersService </title>
<path fill="none" stroke="black" stroke-dasharray="5,2" d="M678.14,-198.21C678.14,-203.55 678.14,-208 678.14,-208 678.14,-208 1302,-208 1302,-208 1302,-208 1302,-227.85 1302,-227.85"/>
<polygon fill="black" stroke="black" points="1298.5,-227.85 1302,-237.85 1305.5,-227.85 1298.5,-227.85"/>
</g>
<!-- AuthService -->
<g id="node6" class="node">
<title>AuthService</title>
<ellipse fill="#fdb462" stroke="black" cx="363" cy="-104" rx="59.11" ry="18"/>
<text text-anchor="middle" x="363" y="-99.8" font-family="Times,serif" font-size="14.00">AuthService</text>
</g>
<!-- AuthService&#45;&gt;AuthModule -->
<g id="edge5" class="edge">
<title>AuthService&#45;&gt;AuthModule</title>
<path fill="none" stroke="black" d="M363,-122.01C363,-122.01 363,-151.85 363,-151.85"/>
<polygon fill="black" stroke="black" points="359.5,-151.85 363,-161.85 366.5,-151.85 359.5,-151.85"/>
</g>
<!-- JwtStrategy -->
<g id="node7" class="node">
<title>JwtStrategy</title>
<ellipse fill="#fdb462" stroke="black" cx="229" cy="-104" rx="56.76" ry="18"/>
<text text-anchor="middle" x="229" y="-99.8" font-family="Times,serif" font-size="14.00">JwtStrategy</text>
</g>
<!-- JwtStrategy&#45;&gt;AuthModule -->
<g id="edge6" class="edge">
<title>JwtStrategy&#45;&gt;AuthModule</title>
<path fill="none" stroke="black" d="M229,-122.03C229,-142.77 229,-174 229,-174 229,-174 309.12,-174 309.12,-174"/>
<polygon fill="black" stroke="black" points="309.12,-177.5 319.12,-174 309.12,-170.5 309.12,-177.5"/>
</g>
<!-- LocalStrategy -->
<g id="node8" class="node">
<title>LocalStrategy</title>
<ellipse fill="#fdb462" stroke="black" cx="89" cy="-104" rx="65.41" ry="18"/>
<text text-anchor="middle" x="89" y="-99.8" font-family="Times,serif" font-size="14.00">LocalStrategy</text>
</g>
<!-- LocalStrategy&#45;&gt;AuthModule -->
<g id="edge7" class="edge">
<title>LocalStrategy&#45;&gt;AuthModule</title>
<path fill="none" stroke="black" d="M89,-122.2C89,-146.36 89,-186 89,-186 89,-186 309.28,-186 309.28,-186"/>
<polygon fill="black" stroke="black" points="309.28,-189.5 319.28,-186 309.28,-182.5 309.28,-189.5"/>
</g>
<!-- HashingProvider  -->
<g id="node9" class="node">
<title>HashingProvider </title>
<polygon fill="#fb8072" stroke="black" points="901.37,-198 786.63,-198 786.63,-162 901.37,-162 901.37,-198"/>
<text text-anchor="middle" x="844" y="-175.8" font-family="Times,serif" font-size="14.00">HashingProvider </text>
</g>
<!-- CommonModule -->
<g id="node10" class="node">
<title>CommonModule</title>
<polygon fill="#8dd3c7" stroke="black" points="894.67,-122 891.67,-126 870.67,-126 867.67,-122 783.33,-122 783.33,-86 894.67,-86 894.67,-122"/>
<text text-anchor="middle" x="839" y="-99.8" font-family="Times,serif" font-size="14.00">CommonModule</text>
</g>
<!-- CommonModule&#45;&gt;CoreModule -->
<g id="edge9" class="edge">
<title>CommonModule&#45;&gt;CoreModule</title>
<path fill="none" stroke="black" d="M822.82,-122.04C822.82,-134.56 822.82,-149 822.82,-149 822.82,-149 499.02,-149 499.02,-149 499.02,-149 499.02,-151.97 499.02,-151.97"/>
<polygon fill="black" stroke="black" points="495.52,-151.97 499.02,-161.97 502.52,-151.97 495.52,-151.97"/>
</g>
<!-- CommonModule&#45;&gt;HashingProvider  -->
<g id="edge8" class="edge">
<title>CommonModule&#45;&gt;HashingProvider </title>
<path fill="none" stroke="black" stroke-dasharray="5,2" d="M858.83,-122.01C858.83,-122.01 858.83,-151.85 858.83,-151.85"/>
<polygon fill="black" stroke="black" points="855.33,-151.85 858.83,-161.85 862.33,-151.85 855.33,-151.85"/>
</g>
<!-- DatabaseModule -->
<g id="node11" class="node">
<title>DatabaseModule</title>
<polygon fill="#8dd3c7" stroke="black" points="672.35,-122 669.35,-126 648.35,-126 645.35,-122 561.65,-122 561.65,-86 672.35,-86 672.35,-122"/>
<text text-anchor="middle" x="617" y="-99.8" font-family="Times,serif" font-size="14.00">DatabaseModule</text>
</g>
<!-- DatabaseModule&#45;&gt;CoreModule -->
<g id="edge10" class="edge">
<title>DatabaseModule&#45;&gt;CoreModule</title>
<path fill="none" stroke="black" d="M599.23,-122.24C599.23,-129.43 599.23,-136 599.23,-136 599.23,-136 486.66,-136 486.66,-136 486.66,-136 486.66,-151.85 486.66,-151.85"/>
<polygon fill="black" stroke="black" points="483.16,-151.85 486.66,-161.85 490.16,-151.85 483.16,-151.85"/>
</g>
<!-- EnvModule -->
<g id="node12" class="node">
<title>EnvModule</title>
<polygon fill="#8dd3c7" stroke="black" points="544.1,-122 541.1,-126 520.1,-126 517.1,-122 461.9,-122 461.9,-86 544.1,-86 544.1,-122"/>
<text text-anchor="middle" x="503" y="-99.8" font-family="Times,serif" font-size="14.00">EnvModule</text>
</g>
<!-- EnvModule&#45;&gt;CoreModule -->
<g id="edge11" class="edge">
<title>EnvModule&#45;&gt;CoreModule</title>
<path fill="none" stroke="black" d="M474.31,-122.01C474.31,-122.01 474.31,-151.85 474.31,-151.85"/>
<polygon fill="black" stroke="black" points="470.81,-151.85 474.31,-161.85 477.81,-151.85 470.81,-151.85"/>
</g>
<!-- SessionsService -->
<g id="node14" class="node">
<title>SessionsService</title>
<ellipse fill="#fdb462" stroke="black" cx="860" cy="-256" rx="73.01" ry="18"/>
<text text-anchor="middle" x="860" y="-251.8" font-family="Times,serif" font-size="14.00">SessionsService</text>
</g>
<!-- SessionsService&#45;&gt;SessionsModule -->
<g id="edge13" class="edge">
<title>SessionsService&#45;&gt;SessionsModule</title>
<path fill="none" stroke="black" d="M790.69,-262C717.79,-262 613.53,-262 613.53,-262 613.53,-262 613.53,-208.2 613.53,-208.2"/>
<polygon fill="black" stroke="black" points="617.03,-208.2 613.53,-198.2 610.03,-208.2 617.03,-208.2"/>
</g>
<!-- UsersService -->
<g id="node16" class="node">
<title>UsersService</title>
<ellipse fill="#fdb462" stroke="black" cx="1169" cy="-256" rx="61.95" ry="18"/>
<text text-anchor="middle" x="1169" y="-251.8" font-family="Times,serif" font-size="14.00">UsersService</text>
</g>
<!-- UsersService&#45;&gt;UsersModule -->
<g id="edge15" class="edge">
<title>UsersService&#45;&gt;UsersModule</title>
<path fill="none" stroke="black" d="M1169,-237.89C1169,-228.1 1169,-218 1169,-218 1169,-218 701,-218 701,-218 701,-218 701,-208.11 701,-208.11"/>
<polygon fill="black" stroke="black" points="704.5,-208.11 701,-198.11 697.5,-208.11 704.5,-208.11"/>
</g>
</g>
</svg>
